<?xml version="1.0" standalone="no"?>
<!DOCTYPE svg PUBLIC "-//W3C//DTD SVG 20010904//EN"
 "http://www.w3.org/TR/2001/REC-SVG-20010904/DTD/svg10.dtd">
<svg version="1.0" xmlns="http://www.w3.org/2000/svg"
 width="400.000000pt" height="400.000000pt" viewBox="0 0 400.000000 400.000000"
 preserveAspectRatio="xMidYMid meet">
<metadata>
Created by potrace 1.14, written by Peter Selinger 2001-2017
</metadata>
<g transform="translate(0.000000,400.000000) scale(0.100000,-0.100000)"
fill="#000000" stroke="none">
<path d="M745 3646 c-15 -22 -16 -72 -13 -433 4 -394 5 -410 27 -478 13 -38
43 -100 68 -138 l45 -67 -1 -133 c-1 -72 -4 -152 -6 -177 -7 -54 -24 -403 -31
-625 -5 -149 -4 -162 15 -193 31 -48 77 -72 138 -72 47 0 58 4 93 36 22 20 40
45 40 55 0 11 5 19 11 19 7 0 9 21 5 63 -2 34 -12 213 -20 397 -9 184 -19 398
-22 475 l-7 140 52 84 c87 143 85 128 89 612 3 384 2 428 -13 443 -18 18 -52
21 -75 6 -13 -8 -16 -63 -20 -357 l-5 -348 -35 0 -35 0 -5 341 c-5 362 -7 374
-54 374 -63 -1 -66 -19 -66 -389 l0 -331 -35 0 -35 0 -1 218 c0 119 0 268 0
330 1 135 -12 172 -59 172 -20 0 -35 -8 -45 -24z"/>
<path d="M1931 3631 c-86 -84 -155 -274 -171 -469 -23 -287 28 -496 153 -634
28 -30 28 -33 22 -112 -4 -44 -10 -130 -15 -191 -4 -60 -22 -240 -39 -400 -35
-331 -37 -375 -16 -415 56 -108 214 -108 270 0 18 35 19 134 5 382 -5 95 -12
214 -14 263 -12 207 -18 540 -20 1010 -1 466 -3 502 -20 535 -43 80 -94 91
-155 31z"/>
<path d="M2845 3653 c-80 -43 -126 -95 -184 -212 -81 -160 -110 -348 -77 -501
32 -148 58 -200 179 -348 21 -26 40 -58 44 -71 6 -25 -1 -256 -17 -566 -5 -99
-12 -256 -16 -350 -5 -160 -4 -172 15 -203 31 -48 77 -72 138 -72 49 0 56 3
96 43 44 43 62 88 53 133 -3 12 -7 104 -11 205 -3 101 -10 213 -15 249 -5 36
-11 182 -12 325 l-3 260 34 37 c58 64 120 152 127 181 3 15 9 27 13 27 5 0 19
35 32 78 20 65 24 98 24 207 0 163 -16 227 -93 385 -32 65 -43 81 -100 137
-70 71 -159 93 -227 56z"/>
<path d="M1320 957 c-19 -6 -36 -11 -38 -12 -2 -2 2 -24 9 -49 11 -46 12 -47
43 -40 74 16 76 19 63 66 -14 47 -24 52 -77 35z"/>
<path d="M2958 958 c-41 -11 -43 -15 -27 -71 9 -33 14 -38 32 -33 12 4 35 9
51 13 27 6 28 8 22 46 -10 63 -11 63 -78 45z"/>
<path d="M122 906 c-24 -8 -53 -23 -64 -33 -60 -53 -79 -202 -35 -277 42 -74
113 -104 206 -86 45 8 111 35 111 44 0 2 -5 17 -11 35 -8 24 -16 31 -28 26
-42 -17 -121 -17 -145 -1 -32 20 -49 83 -40 142 9 60 27 77 73 69 32 -6 70
-37 71 -57 0 -11 48 -10 54 1 3 4 8 33 12 63 l6 56 -33 10 c-60 19 -132 22
-177 8z"/>
<path d="M2005 913 c-79 -5 -92 -10 -98 -39 -3 -20 1 -28 19 -36 23 -11 24
-15 24 -129 0 -109 -1 -118 -20 -124 -15 -5 -20 -15 -20 -41 l0 -35 93 3 c92
3 92 3 95 30 2 19 -3 30 -17 38 -16 8 -21 21 -21 51 0 23 4 39 10 37 6 -2 30
-37 53 -78 l42 -75 49 -3 c74 -5 76 6 22 95 l-48 77 26 19 c60 44 52 155 -14
188 -38 19 -117 28 -195 22z m123 -85 c7 -7 12 -29 12 -50 0 -38 0 -38 -40
-38 l-40 0 0 50 c0 48 1 50 28 50 15 0 33 -5 40 -12z"/>
<path d="M469 821 c-50 -16 -71 -33 -90 -74 -35 -78 -19 -172 36 -215 22 -17
41 -22 89 -22 109 0 161 54 160 167 0 65 -16 101 -57 127 -28 18 -104 28 -138
17z m78 -101 c18 -35 17 -115 -2 -130 -8 -7 -25 -10 -39 -6 -32 8 -50 62 -41
122 6 43 8 45 38 42 22 -2 35 -11 44 -28z"/>
<path d="M1068 817 c-54 -9 -58 -11 -58 -36 0 -15 8 -31 20 -39 17 -10 20 -23
20 -83 0 -63 -2 -71 -21 -76 -16 -4 -19 -12 -17 -37 l3 -31 88 -3 c51 -2 87 1
87 7 0 5 3 16 6 25 4 10 -3 19 -20 27 -25 12 -26 16 -26 86 l0 73 39 0 c32 0
40 4 45 23 18 67 -3 91 -53 61 -27 -16 -32 -17 -43 -3 -11 13 -23 14 -70 6z"/>
<path d="M1318 817 c-54 -9 -58 -11 -58 -37 0 -16 7 -30 15 -34 21 -8 22 -166
1 -166 -21 0 -28 -15 -20 -45 6 -25 7 -26 93 -23 80 3 86 5 89 25 2 14 -4 27
-17 35 -19 12 -21 23 -21 118 0 133 -4 140 -82 127z"/>
<path d="M1530 820 c-19 -5 -45 -20 -57 -35 -30 -34 -31 -102 -4 -136 14 -18
17 -29 9 -42 -5 -10 -8 -28 -6 -40 1 -12 -5 -33 -15 -47 -56 -80 23 -151 151
-136 93 11 132 42 132 106 0 63 -27 82 -138 96 -70 9 -77 24 -10 24 68 0 112
26 128 74 6 20 9 40 5 46 -4 6 5 10 19 10 24 0 26 3 26 46 l0 47 -42 -7 c-54
-9 -63 -10 -118 -3 -25 3 -61 2 -80 -3z m86 -84 c9 -36 1 -60 -19 -64 -28 -6
-47 17 -47 54 0 31 3 34 30 34 23 0 31 -5 36 -24z m17 -243 c4 -2 7 -11 7 -19
0 -10 -12 -14 -43 -14 -44 0 -67 13 -67 38 0 11 10 13 48 7 26 -4 50 -9 55
-12z"/>
<path d="M2362 811 c-74 -35 -103 -139 -63 -228 12 -25 32 -48 50 -57 63 -33
201 -10 201 33 0 44 -7 48 -61 37 -34 -7 -55 -7 -66 0 -33 21 -24 32 34 44 32
6 71 13 87 17 27 5 28 7 22 47 -17 103 -108 151 -204 107z m95 -76 c7 -20 3
-23 -35 -31 -27 -6 -32 -4 -32 13 0 11 3 23 7 26 12 13 54 7 60 -8z"/>
<path d="M2696 820 c-62 -19 -96 -76 -96 -160 0 -99 48 -150 142 -150 59 0
128 21 128 39 0 5 -4 21 -9 34 -9 23 -12 24 -48 14 -61 -16 -90 -4 -104 43 -8
27 -9 50 -2 72 8 28 14 33 37 31 16 -1 35 -11 43 -23 8 -11 25 -20 37 -20 26
0 36 22 36 77 0 30 -3 32 -50 42 -58 13 -74 13 -114 1z"/>
<path d="M3005 825 c-5 -2 -31 -6 -56 -10 -40 -5 -48 -10 -52 -31 -3 -17 1
-28 14 -35 16 -8 19 -22 19 -88 0 -71 -2 -79 -21 -84 -16 -4 -20 -12 -17 -34
l3 -28 87 -3 c82 -3 87 -2 93 20 6 16 2 26 -14 39 -19 16 -21 27 -21 121 0
101 -10 140 -35 133z"/>
<path d="M3243 815 c-18 -8 -33 -10 -33 -5 0 11 -38 13 -92 4 -33 -6 -38 -10
-38 -34 0 -16 7 -30 15 -34 12 -4 15 -30 15 -145 0 -114 -3 -140 -15 -145 -9
-3 -15 -18 -15 -36 l0 -30 90 0 c89 0 90 0 90 25 0 14 -8 29 -20 35 -11 6 -20
19 -20 29 0 15 10 21 49 26 63 8 104 34 124 78 21 43 22 126 3 172 -25 59 -94
87 -153 60z m43 -86 c14 -16 19 -36 18 -76 0 -59 -12 -75 -54 -71 -24 3 -25 6
-28 77 -2 53 1 77 10 82 21 14 34 11 54 -12z"/>
<path d="M3546 820 c-54 -17 -93 -68 -97 -131 -6 -80 0 -100 40 -140 37 -37
42 -39 100 -39 51 0 104 14 129 35 1 1 -3 16 -9 33 -9 28 -13 30 -35 21 -35
-13 -88 -11 -102 3 -18 18 -15 26 16 32 148 28 142 26 142 52 0 38 -30 101
-55 118 -30 20 -92 28 -129 16z m74 -85 c15 -18 15 -18 -32 -32 -40 -12 -46
-6 -32 31 8 20 48 21 64 1z"/>
<path d="M3840 819 c-47 -13 -80 -52 -80 -93 0 -43 22 -70 84 -104 27 -15 51
-33 54 -39 7 -22 -44 -15 -75 10 -42 34 -63 25 -63 -28 0 -33 4 -45 18 -49 84
-23 148 -17 192 21 24 20 30 33 30 63 0 45 -13 60 -86 102 -68 38 -74 48 -30
48 24 0 39 -6 50 -21 25 -36 51 -21 54 33 3 44 2 46 -27 52 -68 13 -88 14
-121 5z"/>
<path d="M673 798 c3 -13 30 -83 59 -155 l53 -133 45 0 45 0 58 132 c32 72 57
141 55 152 -3 18 -11 21 -60 24 -51 3 -57 1 -63 -19 -5 -16 -2 -26 10 -35 17
-13 17 -16 -5 -74 -12 -33 -24 -60 -25 -60 -2 0 -11 24 -21 53 -9 28 -19 58
-22 65 -2 6 3 12 12 12 11 0 16 9 16 30 l0 30 -81 0 c-79 0 -81 -1 -76 -22z"/>
</g>
</svg>
