<svg version="1" xmlns="http://www.w3.org/2000/svg" width="533.333" height="533.333" viewBox="0 0 400.000000 400.000000"><path d="M74.5 35.4c-1.5 2.2-1.6 7.2-1.3 43.3.4 39.4.5 41 2.7 47.8 1.3 3.8 4.3 10 6.8 13.8l4.5 6.7-.1 13.3c-.1 7.2-.4 15.2-.6 17.7-.7 5.4-2.4 40.3-3.1 62.5-.5 14.9-.4 16.2 1.5 19.3 3.1 4.8 7.7 7.2 13.8 7.2 4.7 0 5.8-.4 9.3-3.6 2.2-2 4-4.5 4-5.5 0-1.1.5-1.9 1.1-1.9.7 0 .9-2.1.5-6.3-.2-3.4-1.2-21.3-2-39.7-.9-18.4-1.9-39.8-2.2-47.5l-.7-14 5.2-8.4c8.7-14.3 8.5-12.8 8.9-61.2.3-38.4.2-42.8-1.3-44.3-1.8-1.8-5.2-2.1-7.5-.6-1.3.8-1.6 6.3-2 35.7l-.5 34.8h-7l-.5-34.1c-.5-36.2-.7-37.4-5.4-37.4-6.3.1-6.6 1.9-6.6 38.9V105h-7l-.1-21.8v-33C85 36.7 83.7 33 79 33c-2 0-3.5.8-4.5 2.4zM193.1 36.9c-8.6 8.4-15.5 27.4-17.1 46.9-2.3 28.7 2.8 49.6 15.3 63.4 2.8 3 2.8 3.3 2.2 11.2-.4 4.4-1 13-1.5 19.1-.4 6-2.2 24-3.9 40-3.5 33.1-3.7 37.5-1.6 41.5 5.6 10.8 21.4 10.8 27 0 1.8-3.5 1.9-13.4.5-38.2-.5-9.5-1.2-21.4-1.4-26.3-1.2-20.7-1.8-54-2-101-.1-46.6-.3-50.2-2-53.5-4.3-8-9.4-9.1-15.5-3.1zM284.5 34.7c-8 4.3-12.6 9.5-18.4 21.2-8.1 16-11 34.8-7.7 50.1 3.2 14.8 5.8 20 17.9 34.8 2.1 2.6 4 5.8 4.4 7.1.6 2.5-.1 25.6-1.7 56.6-.5 9.9-1.2 25.6-1.6 35-.5 16-.4 17.2 1.5 20.3 3.1 4.8 7.7 7.2 13.8 7.2 4.9 0 5.6-.3 9.6-4.3 4.4-4.3 6.2-8.8 5.3-13.3-.3-1.2-.7-10.4-1.1-20.5-.3-10.1-1-21.3-1.5-24.9-.5-3.6-1.1-18.2-1.2-32.5l-.3-26 3.4-3.7c5.8-6.4 12-15.2 12.7-18.1.3-1.5.9-2.7 1.3-2.7.5 0 1.9-3.5 3.2-7.8 2-6.5 2.4-9.8 2.4-20.7 0-16.3-1.6-22.7-9.3-38.5-3.2-6.5-4.3-8.1-10-13.7-7-7.1-15.9-9.3-22.7-5.6zM132 304.3c-1.9.6-3.6 1.1-3.8 1.2-.2.2.2 2.4.9 4.9 1.1 4.6 1.2 4.7 4.3 4 7.4-1.6 7.6-1.9 6.3-6.6-1.4-4.7-2.4-5.2-7.7-3.5zM295.8 304.2c-4.1 1.1-4.3 1.5-2.7 7.1.9 3.3 1.4 3.8 3.2 3.3 1.2-.4 3.5-.9 5.1-1.3 2.7-.6 2.8-.8 2.2-4.6-1-6.3-1.1-6.3-7.8-4.5zM12.2 309.4c-2.4.8-5.3 2.3-6.4 3.3-6 5.3-7.9 20.2-3.5 27.7 4.2 7.4 11.3 10.4 20.6 8.6 4.5-.8 11.1-3.5 11.1-4.4 0-.2-.5-1.7-1.1-3.5-.8-2.4-1.6-3.1-2.8-2.6-4.2 1.7-12.1 1.7-14.5.1-3.2-2-4.9-8.3-4-14.2.9-6 2.7-7.7 7.3-6.9 3.2.6 7 3.7 7.1 5.7 0 1.1 4.8 1 5.4-.1.3-.4.8-3.3 1.2-6.3l.6-5.6-3.3-1c-6-1.9-13.2-2.2-17.7-.8zM200.5 308.7c-7.9.5-9.2 1-9.8 3.9-.3 2 .1 2.8 1.9 3.6 2.3 1.1 2.4 1.5 2.4 12.9 0 10.9-.1 11.8-2 12.4-1.5.5-2 1.5-2 4.1v3.5l9.3-.3c9.2-.3 9.2-.3 9.5-3 .2-1.9-.3-3-1.7-3.8-1.6-.8-2.1-2.1-2.1-5.1 0-2.3.4-3.9 1-3.7.6.2 3 3.7 5.3 7.8l4.2 7.5 4.9.3c7.4.5 7.6-.6 2.2-9.5l-4.8-7.7 2.6-1.9c6-4.4 5.2-15.5-1.4-18.8-3.8-1.9-11.7-2.8-19.5-2.2zm12.3 8.5c.7.7 1.2 2.9 1.2 5 0 3.8 0 3.8-4 3.8h-4v-5c0-4.8.1-5 2.8-5 1.5 0 3.3.5 4 1.2zM46.9 317.9c-5 1.6-7.1 3.3-9 7.4-3.5 7.8-1.9 17.2 3.6 21.5 2.2 1.7 4.1 2.2 8.9 2.2 10.9 0 16.1-5.4 16-16.7 0-6.5-1.6-10.1-5.7-12.7-2.8-1.8-10.4-2.8-13.8-1.7zm7.8 10.1c1.8 3.5 1.7 11.5-.2 13-.8.7-2.5 1-3.9.6-3.2-.8-5-6.2-4.1-12.2.6-4.3.8-4.5 3.8-4.2 2.2.2 3.5 1.1 4.4 2.8zM106.8 318.3c-5.4.9-5.8 1.1-5.8 3.6 0 1.5.8 3.1 2 3.9 1.7 1 2 2.3 2 8.3 0 6.3-.2 7.1-2.1 7.6-1.6.4-1.9 1.2-1.7 3.7l.3 3.1 8.8.3c5.1.2 8.7-.1 8.7-.7 0-.5.3-1.6.6-2.5.4-1-.3-1.9-2-2.7-2.5-1.2-2.6-1.6-2.6-8.6V327h3.9c3.2 0 4-.4 4.5-2.3 1.8-6.7-.3-9.1-5.3-6.1-2.7 1.6-3.2 1.7-4.3.3-1.1-1.3-2.3-1.4-7-.6zM131.8 318.3c-5.4.9-5.8 1.1-5.8 3.7 0 1.6.7 3 1.5 3.4 2.1.8 2.2 16.6.1 16.6s-2.8 1.5-2 4.5c.6 2.5.7 2.6 9.3 2.3 8-.3 8.6-.5 8.9-2.5.2-1.4-.4-2.7-1.7-3.5-1.9-1.2-2.1-2.3-2.1-11.8 0-13.3-.4-14-8.2-12.7z"/><path d="M153 318c-1.9.5-4.5 2-5.7 3.5-3 3.4-3.1 10.2-.4 13.6 1.4 1.8 1.7 2.9.9 4.2-.5 1-.8 2.8-.6 4 .1 1.2-.5 3.3-1.5 4.7-5.6 8 2.3 15.1 15.1 13.6 9.3-1.1 13.2-4.2 13.2-10.6 0-6.3-2.7-8.2-13.8-9.6-7-.9-7.7-2.4-1-2.4 6.8 0 11.2-2.6 12.8-7.4.6-2 .9-4 .5-4.6-.4-.6.5-1 1.9-1 2.4 0 2.6-.3 2.6-4.6v-4.7l-4.2.7c-5.4.9-6.3 1-11.8.3-2.5-.3-6.1-.2-8 .3zm8.6 8.4c.9 3.6.1 6-1.9 6.4-2.8.6-4.7-1.7-4.7-5.4 0-3.1.3-3.4 3-3.4 2.3 0 3.1.5 3.6 2.4zm1.7 24.3c.4.2.7 1.1.7 1.9 0 1-1.2 1.4-4.3 1.4-4.4 0-6.7-1.3-6.7-3.8 0-1.1 1-1.3 4.8-.7 2.6.4 5 .9 5.5 1.2zM236.2 318.9c-7.4 3.5-10.3 13.9-6.3 22.8 1.2 2.5 3.2 4.8 5 5.7 6.3 3.3 20.1 1 20.1-3.3 0-4.4-.7-4.8-6.1-3.7-3.4.7-5.5.7-6.6 0-3.3-2.1-2.4-3.2 3.4-4.4 3.2-.6 7.1-1.3 8.7-1.7 2.7-.5 2.8-.7 2.2-4.7-1.7-10.3-10.8-15.1-20.4-10.7zm9.5 7.6c.7 2 .3 2.3-3.5 3.1-2.7.6-3.2.4-3.2-1.3 0-1.1.3-2.3.7-2.6 1.2-1.3 5.4-.7 6 .8zM269.6 318c-6.2 1.9-9.6 7.6-9.6 16 0 9.9 4.8 15 14.2 15 5.9 0 12.8-2.1 12.8-3.9 0-.5-.4-2.1-.9-3.4-.9-2.3-1.2-2.4-4.8-1.4-6.1 1.6-9 .4-10.4-4.3-.8-2.7-.9-5-.2-7.2.8-2.8 1.4-3.3 3.7-3.1 1.6.1 3.5 1.1 4.3 2.3.8 1.1 2.5 2 3.7 2 2.6 0 3.6-2.2 3.6-7.7 0-3-.3-3.2-5-4.2-5.8-1.3-7.4-1.3-11.4-.1zM300.5 317.5c-.5.2-3.1.6-5.6 1-4 .5-4.8 1-5.2 3.1-.3 1.7.1 2.8 1.4 3.5 1.6.8 1.9 2.2 1.9 8.8 0 7.1-.2 7.9-2.1 8.4-1.6.4-2 1.2-1.7 3.4l.3 2.8 8.7.3c8.2.3 8.7.2 9.3-2 .6-1.6.2-2.6-1.4-3.9-1.9-1.6-2.1-2.7-2.1-12.1 0-10.1-1-14-3.5-13.3zM324.3 318.5c-1.8.8-3.3 1-3.3.5 0-1.1-3.8-1.3-9.2-.4-3.3.6-3.8 1-3.8 3.4 0 1.6.7 3 1.5 3.4 1.2.4 1.5 3 1.5 14.5 0 11.4-.3 14-1.5 14.5-.9.3-1.5 1.8-1.5 3.6v3h9c8.9 0 9 0 9-2.5 0-1.4-.8-2.9-2-3.5-1.1-.6-2-1.9-2-2.9 0-1.5 1-2.1 4.9-2.6 6.3-.8 10.4-3.4 12.4-7.8 2.1-4.3 2.2-12.6.3-17.2-2.5-5.9-9.4-8.7-15.3-6zm4.3 8.6c1.4 1.6 1.9 3.6 1.8 7.6 0 5.9-1.2 7.5-5.4 7.1-2.4-.3-2.5-.6-2.8-7.7-.2-5.3.1-7.7 1-8.2 2.1-1.4 3.4-1.1 5.4 1.2zM354.6 318c-5.4 1.7-9.3 6.8-9.7 13.1-.6 8 0 10 4 14 3.7 3.7 4.2 3.9 10 3.9 5.1 0 10.4-1.4 12.9-3.5.1-.1-.3-1.6-.9-3.3-.9-2.8-1.3-3-3.5-2.1-3.5 1.3-8.8 1.1-10.2-.3-1.8-1.8-1.5-2.6 1.6-3.2 14.8-2.8 14.2-2.6 14.2-5.2 0-3.8-3-10.1-5.5-11.8-3-2-9.2-2.8-12.9-1.6zm7.4 8.5c1.5 1.8 1.5 1.8-3.2 3.2-4 1.2-4.6.6-3.2-3.1.8-2 4.8-2.1 6.4-.1zM384 318.1c-4.7 1.3-8 5.2-8 9.3 0 4.3 2.2 7 8.4 10.4 2.7 1.5 5.1 3.3 5.4 3.9.7 2.2-4.4 1.5-7.5-1-4.2-3.4-6.3-2.5-6.3 2.8 0 3.3.4 4.5 1.8 4.9 8.4 2.3 14.8 1.7 19.2-2.1 2.4-2 3-3.3 3-6.3 0-4.5-1.3-6-8.6-10.2-6.8-3.8-7.4-4.8-3-4.8 2.4 0 3.9.6 5 2.1 2.5 3.6 5.1 2.1 5.4-3.3.3-4.4.2-4.6-2.7-5.2-6.8-1.3-8.8-1.4-12.1-.5zM67.3 320.2c.3 1.3 3 8.3 5.9 15.5l5.3 13.3h9l5.8-13.2c3.2-7.2 5.7-14.1 5.5-15.2-.3-1.8-1.1-2.1-6-2.4-5.1-.3-5.7-.1-6.3 1.9-.5 1.6-.2 2.6 1 3.5 1.7 1.3 1.7 1.6-.5 7.4-1.2 3.3-2.4 6-2.5 6-.2 0-1.1-2.4-2.1-5.3-.9-2.8-1.9-5.8-2.2-6.5-.2-.6.3-1.2 1.2-1.2 1.1 0 1.6-.9 1.6-3v-3h-8.1c-7.9 0-8.1.1-7.6 2.2z"/></svg>